<svg preserveAspectRatio="none" width="100%" height="100%" overflow="visible" style="display: block;" viewBox="0 0 219 219" fill="none" xmlns="http://www.w3.org/2000/svg">
<g id="Vector">
<path d="M219 109.5C219 169.975 169.975 219 109.5 219C49.0248 219 0 169.975 0 109.5C0 49.0248 49.0248 0 109.5 0C169.975 0 219 49.0248 219 109.5Z" fill="url(#paint0_radial_0_4)"/>
<path d="M101.999 140.116C98.1446 140.116 94.8158 138.995 92.0126 136.752C89.2795 134.44 86.6865 130.48 84.2337 124.874L76.8753 107.319H72.6705L67.0991 139.065H53.3284C57.2529 116.78 59.951 101.327 61.4227 92.7071C62.8943 84.0872 63.6302 79.3919 63.6302 78.621C63.6302 76.6588 63.1747 75.2221 62.2636 74.3111C61.3526 73.33 59.8108 72.8394 57.6383 72.8394H56.5871L57.1127 69.6858H86.1259C92.7134 69.6858 98.5651 70.772 103.681 72.9445C108.797 75.117 111.355 79.2517 111.355 85.3487C111.355 90.885 109.463 95.4052 105.678 98.9092C101.894 102.413 96.9883 104.936 90.9614 106.478L98.7403 124.874C101.614 131.742 105.293 135.596 109.778 136.437L109.357 139.065C108.797 139.345 107.746 139.591 106.204 139.801C104.732 140.011 103.33 140.116 101.999 140.116ZM79.7135 103.114C82.9372 103.114 85.8455 102.308 88.4385 100.696C91.0315 99.0844 93.0638 96.8768 94.5355 94.0736C96.0071 91.2704 96.743 88.1869 96.743 84.8231C96.743 81.1088 95.6217 78.3757 93.3791 76.6237C91.2067 74.8016 88.5436 73.8906 85.39 73.8906C83.3577 73.8906 81.7809 74.0308 80.6596 74.3111L78.4521 74.6264L73.4063 103.114H79.7135Z" fill="url(#paint1_radial_0_4)"/>
<path d="M112.849 159.038C116.773 136.682 119.471 121.195 120.943 112.575C122.414 103.955 123.15 99.2596 123.15 98.4887C123.15 96.5264 122.695 95.0898 121.784 94.1788C120.943 93.2677 119.436 92.8122 117.264 92.8122H116.212L116.738 89.6586H127.145C129.598 89.6586 131.455 90.009 132.716 90.7098C133.978 91.3405 134.819 92.4618 135.239 94.0736C139.724 90.4295 144.805 88.6074 150.481 88.6074C156.438 88.6074 160.958 90.3594 164.042 93.8634C167.125 97.3674 168.667 102.028 168.667 107.844C168.667 113.381 167.511 118.637 165.198 123.612C162.886 128.518 159.627 132.513 155.422 135.596C151.217 138.609 146.382 140.116 140.916 140.116C137.972 140.116 135.379 139.591 133.137 138.539C132.015 138.119 131.104 137.593 130.404 136.963L126.514 159.038H112.849ZM139.654 135.386C143.298 135.386 146.242 133.564 148.484 129.92C150.727 126.275 152.339 122.071 153.32 117.305C154.301 112.54 154.791 108.37 154.791 104.796C154.791 101.082 154.231 98.2434 153.109 96.2812C151.988 94.3189 150.131 93.3378 147.538 93.3378C143.614 93.3378 139.969 94.7744 136.606 97.6477V98.1733L136.711 99.645C136.711 100.906 134.889 111.769 131.245 132.232C131.875 132.863 132.611 133.389 133.452 133.809C135.414 134.86 137.482 135.386 139.654 135.386Z" fill="url(#paint2_radial_0_4)"/>
</g>
<defs>
<radialGradient id="paint0_radial_0_4" cx="0" cy="0" r="1" gradientUnits="userSpaceOnUse" gradientTransform="translate(109.5) rotate(90) scale(243.09)">
<stop stop-color="#0C0C0C"/>
<stop offset="0.644231" stop-color="#151515"/>
<stop offset="1" stop-color="#272727"/>
</radialGradient>
<radialGradient id="paint1_radial_0_4" cx="0" cy="0" r="1" gradientUnits="userSpaceOnUse" gradientTransform="translate(97.455 95.265) rotate(37.6656) scale(78.8476 83.228)">
<stop stop-color="#FFF6D2"/>
<stop offset="0.375" stop-color="#F6D55A"/>
<stop offset="1" stop-color="#C9980B"/>
</radialGradient>
<radialGradient id="paint2_radial_0_4" cx="0" cy="0" r="1" gradientUnits="userSpaceOnUse" gradientTransform="translate(97.455 95.265) rotate(37.6656) scale(78.8476 83.228)">
<stop stop-color="#FFF6D2"/>
<stop offset="0.375" stop-color="#F6D55A"/>
<stop offset="1" stop-color="#C9980B"/>
</radialGradient>
</defs>
</svg>
